<svg width="1011" height="501" viewBox="0 0 1011 501" fill="none" xmlns="http://www.w3.org/2000/svg">
<g filter="url(#filter0_i_70_2)">
<path d="M0 20C0 8.9543 8.95431 0 20 0H991C1002.05 0 1011 8.9543 1011 20V481C1011 492.046 1002.05 501 991 501H20C8.95428 501 0 492.046 0 481V20Z" fill="#E9D9CC"/>
</g>
<path d="M20 0.5H991C1001.77 0.5 1010.5 9.23045 1010.5 20V481C1010.5 491.77 1001.77 500.5 991 500.5H20C9.23045 500.5 0.5 491.77 0.5 481V20C0.5 9.23045 9.23045 0.5 20 0.5Z" stroke="black"/>
<defs>
<filter id="filter0_i_70_2" x="0" y="0" width="1011" height="505" filterUnits="userSpaceOnUse" color-interpolation-filters="sRGB">
<feFlood flood-opacity="0" result="BackgroundImageFix"/>
<feBlend mode="normal" in="SourceGraphic" in2="BackgroundImageFix" result="shape"/>
<feColorMatrix in="SourceAlpha" type="matrix" values="0 0 0 0 0 0 0 0 0 0 0 0 0 0 0 0 0 0 127 0" result="hardAlpha"/>
<feOffset dy="4"/>
<feGaussianBlur stdDeviation="2"/>
<feComposite in2="hardAlpha" operator="arithmetic" k2="-1" k3="1"/>
<feColorMatrix type="matrix" values="0 0 0 0 0 0 0 0 0 0 0 0 0 0 0 0 0 0 0.25 0"/>
<feBlend mode="normal" in2="shape" result="effect1_innerShadow_70_2"/>
</filter>
</defs>
</svg>
