<svg width="272" height="63" viewBox="0 0 272 63" fill="none" xmlns="http://www.w3.org/2000/svg">
<g filter="url(#filter0_i_92_275)">
<path d="M0 20C0 8.9543 8.95431 0 20 0H252C263.046 0 272 8.95431 272 20V43C272 54.0457 263.046 63 252 63H20C8.95431 63 0 54.0457 0 43V20Z" fill="#964F4C"/>
</g>
<path d="M20 0.5H252C262.77 0.5 271.5 9.23045 271.5 20V43C271.5 53.7696 262.77 62.5 252 62.5H20C9.23045 62.5 0.5 53.7695 0.5 43V20C0.5 9.23045 9.23045 0.5 20 0.5Z" stroke="#964F4C"/>
<defs>
<filter id="filter0_i_92_275" x="0" y="0" width="272" height="67" filterUnits="userSpaceOnUse" color-interpolation-filters="sRGB">
<feFlood flood-opacity="0" result="BackgroundImageFix"/>
<feBlend mode="normal" in="SourceGraphic" in2="BackgroundImageFix" result="shape"/>
<feColorMatrix in="SourceAlpha" type="matrix" values="0 0 0 0 0 0 0 0 0 0 0 0 0 0 0 0 0 0 127 0" result="hardAlpha"/>
<feOffset dy="4"/>
<feGaussianBlur stdDeviation="2"/>
<feComposite in2="hardAlpha" operator="arithmetic" k2="-1" k3="1"/>
<feColorMatrix type="matrix" values="0 0 0 0 0 0 0 0 0 0 0 0 0 0 0 0 0 0 0.25 0"/>
<feBlend mode="normal" in2="shape" result="effect1_innerShadow_92_275"/>
</filter>
</defs>
</svg>
